<?xml version="1.0" encoding="iso-8859-1"?>
<!-- Generator: Adobe Illustrator 19.0.0, SVG Export Plug-In . SVG Version: 6.00 Build 0)  -->
<svg version="1.1" id="Layer_1" xmlns="http://www.w3.org/2000/svg" xmlns:xlink="http://www.w3.org/1999/xlink" x="0px" y="0px"
	 viewBox="0 0 512 512" style="enable-background:new 0 0 512 512;" xml:space="preserve">
<g>
	<g>
		<g>
			<path d="M373.182,219.966h-4.119v-60.832H139.924v15.208h213.931v45.625h-25.661v15.208h44.987
				c34.368,0,62.329,27.96,62.329,62.328v37.582c0,10.74-2.73,20.854-7.534,29.685c-10.568,19.428-31.167,32.643-54.795,32.643
				h-19.327h-25.661v15.208h25.661v28.627c0,30.627-24.916,55.542-55.541,55.542h-166.28c-30.626,0-55.541-24.916-55.541-55.542
				V174.343h43.156v-15.208H61.282V441.25c0,39.012,31.738,70.75,70.749,70.75h166.281c39.011,0,70.749-31.739,70.749-70.75v-28.628
				h4.119h0.001c42.754,0,77.536-34.784,77.536-77.537v-37.582C450.718,254.75,415.936,219.966,373.182,219.966z"/>
			<path d="M328.194,364.149L328.194,364.149v15.208h25.661h19.327h0.001c18.308,0,34.057-11.172,40.787-27.056
				c2.244-5.294,3.485-11.113,3.485-17.215v-37.582c0-6.102-1.241-11.921-3.485-17.215c-6.73-15.884-22.478-27.056-40.787-27.056
				h-0.001h-19.327h-25.661v15.208h25.661v95.708H328.194z M369.063,268.44h4.119c15.525,0,28.246,12.235,29.027,27.57
				c0.025,0.495,0.037,0.993,0.037,1.493v37.582c0,0.501-0.012,0.999-0.037,1.493c-0.78,15.335-13.502,27.57-29.027,27.57h-4.119
				V268.44z"/>
			<path d="M132.031,481.584h38.308v-15.208h-38.308c-13.854,0-25.126-11.271-25.126-25.126v-74.744H91.698v74.744
				C91.698,463.491,109.792,481.584,132.031,481.584z"/>
			<rect x="91.694" y="294.405" width="15.208" height="51.829"/>
			<path d="M140.763,99.67h148.82c7.451,0,13.512,6.062,13.512,13.511c0,7.451-6.062,13.512-13.512,13.512h-74.41V141.9h74.41
				c15.836,0,28.72-12.883,28.72-28.72c0-15.835-12.883-28.719-28.72-28.719h-148.82c-7.451,0-13.512-6.062-13.512-13.512
				s6.062-13.511,13.512-13.511h98.127c15.836,0,28.72-12.883,28.72-28.72c0-15.837-12.883-28.72-28.72-28.72h-74.41v15.208h74.41
				c7.451,0,13.512,6.062,13.512,13.511c0,7.451-6.062,13.512-13.512,13.512h-98.127c-15.836,0-28.72,12.883-28.72,28.719
				C112.043,86.787,124.926,99.67,140.763,99.67z"/>
		</g>
	</g>
</g>
<g>
</g>
<g>
</g>
<g>
</g>
<g>
</g>
<g>
</g>
<g>
</g>
<g>
</g>
<g>
</g>
<g>
</g>
<g>
</g>
<g>
</g>
<g>
</g>
<g>
</g>
<g>
</g>
<g>
</g>
</svg>
